<?xml version="1.0" encoding="UTF-8" standalone="no"?><!DOCTYPE svg PUBLIC "-//W3C//DTD SVG 1.1//EN" "http://www.w3.org/Graphics/SVG/1.1/DTD/svg11.dtd"><svg width="100%" height="100%" viewBox="0 0 36 36" version="1.1" xmlns="http://www.w3.org/2000/svg" xmlns:xlink="http://www.w3.org/1999/xlink" xml:space="preserve" style="fill-rule:evenodd;clip-rule:evenodd;stroke-linecap:round;stroke-linejoin:round;stroke-miterlimit:1.5;"><g><path d="M12.42,12.6c-0.021,0.179 -0.132,0.988 0.356,1.525c0.537,0.591 1.764,0.77 2.392,0c0.468,-0.575 0.313,-1.436 0.312,-1.525" style="fill:none;stroke:#fff;stroke-width:0.75px;"/><path d="M20.315,12.6c-0.022,0.179 -0.132,0.988 0.356,1.525c0.537,0.591 1.764,0.77 2.392,0c0.468,-0.575 0.312,-1.436 0.312,-1.525" style="fill:none;stroke:#fff;stroke-width:0.75px;"/><path d="M12.96,24.48c0,0 0.661,-3.99 5.22,-3.96c4.758,0.031 5.226,3.729 5.22,3.96" style="fill:none;stroke:#fff;stroke-width:0.75px;"/><path d="M24.66,15.66l-1.26,4.32c0,0 -0.186,1.635 1.26,1.62c1.446,-0.015 1.26,-1.62 1.26,-1.62l-1.26,-4.32Z" style="fill:#fff;"/><circle cx="18" cy="18" r="13.32" style="fill:none;stroke:#fff;stroke-width:0.8px;"/></g></svg>