<?xml version="1.0" encoding="UTF-8" standalone="no"?><!DOCTYPE svg PUBLIC "-//W3C//DTD SVG 1.1//EN" "http://www.w3.org/Graphics/SVG/1.1/DTD/svg11.dtd"><svg width="100%" height="100%" viewBox="0 0 36 36" version="1.1" xmlns="http://www.w3.org/2000/svg" xmlns:xlink="http://www.w3.org/1999/xlink" xml:space="preserve" style="fill-rule:evenodd;clip-rule:evenodd;stroke-linejoin:round;stroke-miterlimit:1.41421;"><g><ellipse cx="14.167" cy="13.969" rx="1.096" ry="1.39" style="fill:#fff;"/><ellipse cx="21.907" cy="13.969" rx="0.953" ry="1.209" style="fill:#fff;"/><ellipse cx="18.163" cy="22.951" rx="3.33" ry="4.179" style="fill:#fff;"/><path d="M14.021,11.075c0.125,-0.184 0.797,-0.062 0.614,-0.187l-3.096,-1.867c-0.183,-0.124 -0.433,-0.077 -0.558,0.106l-0.451,0.665c-0.125,0.183 -0.077,0.433 0.106,0.558l2.375,1.456c0.184,0.125 0.434,-0.375 0.558,-0.558l0.452,-0.173Z" style="fill:#fff;"/><path d="M21.99,11.075c-0.124,-0.184 -0.797,-0.062 -0.613,-0.187l3.095,-1.867c0.183,-0.124 0.433,-0.077 0.558,0.106l0.452,0.665c0.124,0.183 0.077,0.433 -0.107,0.558l-2.375,1.456c-0.183,0.125 -0.433,-0.375 -0.558,-0.558l-0.452,-0.173Z" style="fill:#fff;"/><ellipse cx="13.885" cy="13.217" rx="1.607" ry="2.142" style="fill:none;stroke:#fff;stroke-width:0.8px;"/><ellipse cx="22.127" cy="13.217" rx="1.607" ry="2.142" style="fill:none;stroke:#fff;stroke-width:0.8px;"/><circle cx="18" cy="18" r="13.32" style="fill:none;stroke:#fff;stroke-width:0.8px;stroke-linecap:round;stroke-miterlimit:1.5;"/></g></svg>