<?xml version="1.0" encoding="UTF-8" standalone="no"?><!DOCTYPE svg PUBLIC "-//W3C//DTD SVG 1.1//EN" "http://www.w3.org/Graphics/SVG/1.1/DTD/svg11.dtd"><svg width="100%" height="100%" viewBox="0 0 36 36" version="1.1" xmlns="http://www.w3.org/2000/svg" xmlns:xlink="http://www.w3.org/1999/xlink" xml:space="preserve" style="fill-rule:evenodd;clip-rule:evenodd;stroke-linecap:round;stroke-linejoin:round;stroke-miterlimit:1.5;"><g><path d="M15.359,21.236l6.441,-0.821c0,0 1.994,4.785 0.538,6.14c-1.682,1.565 -2.657,-1.737 -3.86,-1.633c-1.104,0.095 -1.678,2.298 -3.267,1.93c-1.292,-0.3 -0.873,-4.285 0.148,-5.616Z" style="fill:#fff;"/><path d="M11.261,12.24c0,0 1.191,-2.339 3.139,-2.34" style="fill:none;stroke:#fff;stroke-width:0.75px;"/><path d="M25.2,12.24c0,0 -1.191,-2.339 -3.139,-2.34" style="fill:none;stroke:#fff;stroke-width:0.75px;"/><path d="M12.875,14.76c0,0 2.372,-1.36 3.145,-1.08c0.773,0.28 -0.36,-2.34 -0.36,-2.34" style="fill:none;stroke:#fff;stroke-width:0.75px;"/><path d="M23.67,14.76c0,0 -2.372,-1.36 -3.145,-1.08c-0.773,0.28 0.36,-2.34 0.36,-2.34" style="fill:none;stroke:#fff;stroke-width:0.75px;"/><path d="M15.36,27c-1.942,-0.033 -1.075,-8.462 3.861,-8.463c3.969,0 4.36,8.463 2.524,8.463c-2.379,0.001 -1.99,-2.168 -3.415,-2.078c-1.139,0.071 -1.027,2.111 -2.97,2.078Z" style="fill:none;stroke:#fff;stroke-width:0.75px;"/><path d="M15.36,21.21c-0.102,0.197 5.488,-0.8 6.236,-0.943c0.362,-0.07 -1.102,-1.905 -2.821,-1.73c-1.719,0.176 -2.769,1.436 -3.415,2.673Z" style="fill:none;stroke:#fff;stroke-width:0.75px;"/><circle cx="18" cy="18" r="13.32" style="fill:none;stroke:#fff;stroke-width:0.8px;"/></g></svg>