<?xml version="1.0" encoding="UTF-8" standalone="no"?><!DOCTYPE svg PUBLIC "-//W3C//DTD SVG 1.1//EN" "http://www.w3.org/Graphics/SVG/1.1/DTD/svg11.dtd"><svg width="100%" height="100%" viewBox="0 0 36 36" version="1.1" xmlns="http://www.w3.org/2000/svg" xmlns:xlink="http://www.w3.org/1999/xlink" xml:space="preserve" style="fill-rule:evenodd;clip-rule:evenodd;stroke-linecap:round;stroke-linejoin:round;stroke-miterlimit:1.5;"><g><path d="M13.14,11.52c0,0 1.326,-2.142 3.06,-1.08" style="fill:none;stroke:#fff;stroke-width:0.75px;"/><path d="M24.12,11.88c0,0 -1.326,-2.142 -3.06,-1.08" style="fill:none;stroke:#fff;stroke-width:0.75px;"/><path d="M11.52,23.58c0,0 6.075,4.003 12.6,-0.9" style="fill:none;stroke:#fff;stroke-width:0.75px;"/><path d="M23.58,21.42c0,0 0.176,1.464 1.62,1.8" style="fill:none;stroke:#fff;stroke-width:0.75px;"/><path d="M17.64,26.82c0,0 1.57,0.115 2.7,-0.54" style="fill:none;stroke:#fff;stroke-width:0.75px;"/><path d="M14.22,13.14c0,0 -1.24,1.304 -1.98,1.44c-0.74,0.136 2.469,1.742 3.96,0" style="fill:none;stroke:#fff;stroke-width:0.75px;"/><path d="M21.6,13.14c0,0 -1.24,1.304 -1.98,1.44c-0.74,0.136 2.469,1.742 3.96,0" style="fill:none;stroke:#fff;stroke-width:0.75px;"/><circle cx="18" cy="18" r="13.32" style="fill:none;stroke:#fff;stroke-width:0.8px;"/></g></svg>