<?xml version="1.0" encoding="UTF-8" standalone="no"?><!DOCTYPE svg PUBLIC "-//W3C//DTD SVG 1.1//EN" "http://www.w3.org/Graphics/SVG/1.1/DTD/svg11.dtd"><svg width="100%" height="100%" viewBox="0 0 36 36" version="1.1" xmlns="http://www.w3.org/2000/svg" xmlns:xlink="http://www.w3.org/1999/xlink" xml:space="preserve" style="fill-rule:evenodd;clip-rule:evenodd;stroke-linecap:round;stroke-linejoin:round;stroke-miterlimit:1.5;"><g><circle cx="18" cy="18" r="13.32" style="fill:none;stroke:#fff;stroke-width:0.8px;"/><path d="M8.612,18.194c0,0 1.086,9.402 9.207,9.63c8.917,0.251 10.265,-9.496 10.17,-9.63c-0.012,-0.017 -2.186,2.86 -9.207,2.889c-7.021,0.029 -10.17,-2.889 -10.17,-2.889Z" style="fill:none;stroke:#fff;stroke-width:0.75px;"/><path d="M9.152,20.174c0,0 1.861,7.278 8.667,7.65c7.564,0.414 9.869,-8.08 9.721,-8.01c-0.333,0.157 -4.207,2.074 -9.298,2.307c-4.065,0.186 -9.09,-1.947 -9.09,-1.947Z" style="fill:none;stroke:#fff;stroke-width:0.75px;"/><path d="M9.36,20.696c0,0 8.062,4.649 18,0.18c0.112,-0.05 0.36,-2.156 0.36,-2.156c0,0 -7.61,5.325 -18.9,0c-0.098,-0.046 0.347,1.899 0.54,1.976Z" style="fill:#fff;"/><path d="M23.4,11.696l-2.16,1.984l2.88,2.34" style="fill:none;stroke:#fff;stroke-width:0.75px;"/><path d="M12.96,11.696l2.16,1.984l-2.88,2.34" style="fill:none;stroke:#fff;stroke-width:0.75px;"/></g></svg>